<svg xmlns="http://www.w3.org/2000/svg" viewBox="0 0 801.14 975"><path d="M400.56 0C178.97 0 0 179 0 400.57 0 719.32 400.56 975 400.56 975s400.57-255.68 400.57-574.43C801.13 179 622.16 0 400.56 0zm0 724.45c-178.52 0-322.7-144.19-322.7-322.7S222.05 79 400.56 79s322.7 144.19 322.7 322.7c.01 175.13-144.18 322.75-322.7 322.75z" fill="#fff"/><path d="M275.26 178q47.41-.06 94.82 0l31.56.12 43.54 68q45.54 70.87 91 141.78a53.54 53.54 0 0 1 3.75 6.14c-.26 2.06-1.95 3.7-3 5.49Q491.74 470 446.55 540.45l-44.91 70.11-126.39.1Q344.4 503.21 413.14 395.5a1.7 1.7 0 0 0 0-2.3Q344.18 285.63 275.26 178z" fill="#e5a00d"/></svg>