<svg xmlns="http://www.w3.org/2000/svg" viewBox="0 0 512 512"><path d="M256,8C119,8,8,119,8,256s111,248,248,248s248-111,248-248S393,8,256,8z" fill="#282A2D"/><path d="M239 125.8c23.9-16.8 54.2-24.4 83.1-20.4 26.5 3.2 51.7 15.9 70.3 35.1 19.7 20.4 32 47.8 33.6 76.2 1.5 31.6-9.3 64-31.1 87.2-18.1 20.4-43.7 33.7-70.5 37.7-31.3 4.4-64.3-3.9-89.5-23.1l-112 89c-3.7 3.2-9.8 5.2-13.5.8-7.4-8-13.6-17-20.5-25.4-4.7-4.5-2.8-12.3 2.2-15.8l110.7-88c-11.4-22.2-16.1-47.7-12.5-72.4 4.6-32.3 23-62.3 49.7-80.9zm56 25.7c-24.5 4.2-46.2 21.7-55.4 44.8-4.8 12.5-6.7 26.3-4.1 39.6 3.9 23.4 20 44.2 41.6 54 17.2 8.2 37.5 8.8 55.3 2.4 29.1-10.7 49.8-41 47.8-72.2-1.2-21.4-12.4-41.9-29.3-55-15.7-12.1-36.5-16.6-55.9-13.6zM136.5 355.6l8.4 10.2 75.9-60.2-8.5-10.1-75.8 60.1zm-27.7 22.1c2.5 3.6 5.3 7.1 8.2 10.5 4.4-3.3 8.7-6.7 12.8-10.4-2.5-3.6-5.1-7.1-8-10.5a116.14 116.14 0 0 0-13 10.4zm187.7-209.3c11-1.4 22.8-1.5 33.1 2.7 5.4 2.4 2.5 11.5-3.3 10.1-14.2-3.4-30.3-4.2-43 4.1-15.4 10.7-25.1 31.1-19.6 49.7.5 3.7 3.8 8 .6 11.2-3.3 3.8-9 .7-10-3.5-12.4-30.4 9.7-69.2 42.2-74.3z" fill="#fff"/></svg>