<?xml version="1.0" standalone="no"?>
<!DOCTYPE svg PUBLIC "-//W3C//DTD SVG 20010904//EN"
 "http://www.w3.org/TR/2001/REC-SVG-20010904/DTD/svg10.dtd">
<svg version="1.0" xmlns="http://www.w3.org/2000/svg"
 width="16.000000pt" height="16.000000pt" viewBox="0 0 16.000000 16.000000"
 preserveAspectRatio="xMidYMid meet">
<metadata>
Created by potrace 1.11, written by Peter Selinger 2001-2013
</metadata>
<g transform="translate(0.000000,16.000000) scale(0.002286,-0.002286)"
fill="#000000" stroke="none">
<path d="M2303 6221 c42 -49 167 -210 167 -214 0 -2 -41 -27 -91 -56 -77 -44
-134 -82 -219 -148 -47 -36 -162 -134 -209 -178 -132 -122 -167 -163 -261
-295 -152 -215 -266 -441 -341 -675 -52 -163 -50 -152 -79 -315 -41 -227 -42
-442 -5 -690 8 -52 17 -106 21 -120 3 -14 8 -38 11 -55 8 -46 77 -254 104
-310 56 -122 158 -269 239 -343 49 -46 146 -115 201 -142 94 -48 151 -59 279
-55 63 2 232 6 375 10 143 3 305 8 360 10 55 2 165 4 244 6 l145 2 -75 26
c-144 51 -269 140 -450 321 -271 270 -434 547 -499 845 -15 72 -18 118 -16
230 3 77 9 157 16 179 6 21 13 46 15 55 27 112 143 322 238 428 144 162 356
327 544 426 l51 27 68 -100 c37 -55 68 -99 69 -98 1 2 42 104 90 228 92 235
139 355 298 761 54 135 97 248 97 251 0 2 -315 5 -700 5 -640 0 -699 -1 -687
-16z"/>
<path d="M3878 5356 c-1 -2 -42 -6 -89 -10 -48 -3 -95 -9 -105 -12 -130 -46
-225 -126 -324 -273 -59 -89 -111 -204 -160 -356 -187 -588 -367 -1063 -511
-1348 -16 -32 -29 -64 -29 -72 0 -7 26 -47 58 -87 154 -193 339 -339 539 -427
107 -46 147 -54 182 -37 83 43 216 251 331 516 18 41 38 89 45 105 7 17 39 98
70 180 50 131 381 966 404 1020 5 11 17 40 26 65 9 25 23 59 30 75 7 17 22 55
33 85 110 305 289 514 479 559 36 9 35 9 -27 11 -102 4 -948 9 -952 6z"/>
<path d="M5024 5255 c-184 -39 -355 -209 -497 -494 l-37 -74 31 -31 c40 -39
109 -145 136 -211 84 -199 100 -507 42 -768 -67 -303 -256 -551 -589 -771 -62
-42 -116 -76 -120 -76 -3 0 -44 38 -90 85 l-84 86 -51 -128 c-29 -70 -119
-292 -200 -493 -81 -201 -169 -418 -196 -484 -27 -65 -47 -121 -44 -126 2 -4
317 -7 699 -7 l695 0 -21 31 c-12 17 -48 68 -80 113 -32 44 -58 85 -58 90 0 4
10 14 23 22 19 12 173 124 217 158 246 191 471 399 563 520 203 266 341 623
383 988 14 128 19 372 9 470 -2 22 -7 65 -10 95 -37 381 -148 651 -352 856
-75 75 -142 126 -187 143 -43 17 -118 19 -182 6z"/>
<path d="M542 832 c-30 -23 -40 -83 -18 -116 29 -46 123 -44 141 2 10 26 -11
36 -28 12 -19 -27 -61 -35 -81 -14 -25 25 -21 81 9 100 23 15 65 12 65 -6 0
-12 29 -20 35 -10 3 5 -3 18 -15 30 -25 25 -77 26 -108 2z"/>
<path d="M1093 843 c-7 -3 -13 -11 -13 -18 0 -7 -6 -16 -12 -19 -10 -5 -10 -7
0 -12 6 -3 12 -23 12 -44 0 -21 3 -45 6 -54 7 -17 54 -22 54 -6 0 6 -7 10 -15
10 -11 0 -15 12 -15 45 0 33 4 45 15 45 8 0 15 5 15 10 0 6 -6 10 -14 10 -8 0
-16 8 -18 18 -2 11 -9 17 -15 15z"/>
<path d="M1400 818 c0 -25 -3 -29 -12 -20 -18 18 -53 15 -71 -6 -23 -25 -21
-68 3 -92 22 -22 66 -27 73 -7 4 10 6 10 6 0 1 -7 8 -13 16 -13 12 0 15 16 15
85 0 69 -3 85 -15 85 -10 0 -15 -10 -15 -32z m-10 -47 c15 -30 12 -49 -11 -61
-25 -14 -49 2 -49 34 0 43 41 61 60 27z"/>
<path d="M1530 767 l0 -84 49 -1 c55 -1 68 8 77 55 8 43 -26 78 -67 69 -26 -5
-29 -3 -29 19 0 16 -6 25 -15 25 -12 0 -15 -16 -15 -83z m88 11 c30 -30 -2
-93 -36 -71 -21 13 -27 50 -12 69 15 17 32 18 48 2z"/>
<path d="M1907 832 c-32 -35 -17 -66 36 -76 15 -2 31 -7 37 -11 17 -10 11 -33
-10 -40 -21 -7 -60 10 -60 25 0 6 -7 10 -15 10 -8 0 -15 -6 -15 -14 0 -36 76
-57 115 -32 30 20 32 46 5 71 -11 10 -20 15 -20 12 0 -3 -14 -1 -31 5 -19 7
-29 16 -27 27 5 22 36 26 58 6 29 -26 49 -14 22 13 -27 27 -73 29 -95 4z"/>
<path d="M2073 843 c-7 -3 -13 -11 -13 -18 0 -7 -6 -16 -12 -19 -10 -5 -10 -7
0 -12 6 -3 12 -23 12 -44 0 -21 3 -45 6 -54 7 -17 54 -22 54 -6 0 6 -7 10 -15
10 -11 0 -15 12 -15 45 0 33 4 45 15 45 8 0 15 5 15 10 0 6 -6 10 -14 10 -8 0
-16 8 -18 18 -2 11 -9 17 -15 15z"/>
<path d="M2440 765 c0 -69 3 -85 15 -85 11 0 15 12 15 49 0 35 4 51 16 55 26
10 34 -3 34 -55 0 -37 4 -49 15 -49 11 0 15 13 15 54 0 61 -16 82 -55 72 -22
-6 -25 -3 -25 19 0 16 -6 25 -15 25 -12 0 -15 -16 -15 -85z"/>
<path d="M2940 764 l0 -86 66 4 c66 4 84 14 84 50 0 9 -7 23 -15 32 -9 9 -11
17 -5 21 15 9 12 31 -6 49 -10 11 -34 16 -70 16 l-54 0 0 -86z m99 57 c25 -16
4 -41 -34 -41 -31 0 -35 3 -35 25 0 21 5 25 28 25 15 0 33 -4 41 -9z m5 -67
c24 -9 19 -41 -6 -48 -52 -13 -68 -8 -68 24 0 26 3 30 29 30 16 0 36 -3 45 -6z"/>
<path d="M690 744 c0 -50 3 -64 15 -64 11 0 15 12 15 44 0 37 5 48 27 64 l26
19 -41 0 -42 0 0 -63z"/>
<path d="M790 790 c-11 -11 -20 -31 -20 -45 0 -53 69 -85 105 -49 22 22 11 30
-20 14 -20 -11 -27 -11 -40 0 -26 22 -16 31 30 27 41 -3 45 -2 45 18 0 49 -64
71 -100 35z m68 -17 c2 -9 -7 -13 -28 -13 -28 0 -31 2 -20 15 15 18 41 16 48
-2z"/>
<path d="M929 790 c-23 -19 -23 -19 -3 -20 11 0 25 5 31 11 13 13 43 5 43 -10
0 -5 -18 -12 -40 -16 -27 -4 -41 -13 -45 -26 -11 -33 11 -48 69 -46 l53 1 -5
51 c-2 27 -9 56 -14 63 -15 18 -63 15 -89 -8z m71 -64 c0 -18 -39 -31 -52 -18
-15 15 0 32 28 32 14 0 24 -6 24 -14z"/>
<path d="M1180 788 c-25 -28 -26 -62 0 -88 24 -24 63 -26 84 -4 25 24 9 35
-24 16 -27 -15 -32 -15 -40 -2 -13 21 -12 31 3 29 6 -1 29 -1 49 0 31 1 36 4
31 19 -19 53 -68 68 -103 30z m70 -13 c11 -13 7 -15 -23 -15 -28 0 -35 3 -31
15 4 8 14 15 24 15 10 0 23 -7 30 -15z"/>
<path d="M1675 793 c4 -10 15 -42 25 -70 19 -52 19 -53 -1 -63 -24 -14 -25
-30 0 -30 25 0 35 14 65 94 30 79 31 86 12 86 -12 0 -23 -23 -32 -68 -4 -23
-13 -26 -20 -6 -18 57 -28 74 -41 74 -10 0 -13 -6 -8 -17z"/>
<path d="M2160 790 c-11 -11 -20 -31 -20 -45 0 -53 69 -85 105 -49 22 22 11
30 -20 14 -20 -11 -27 -11 -40 0 -26 22 -17 30 35 30 43 0 49 2 43 18 -19 52
-67 68 -103 32z m68 -17 c2 -9 -7 -13 -27 -13 -31 0 -42 14 -18 23 19 8 40 3
45 -10z"/>
<path d="M2290 718 c0 -72 3 -88 15 -88 10 0 15 10 15 29 0 28 2 29 34 24 27
-4 36 -1 50 18 39 56 6 108 -68 107 l-46 -1 0 -89z m94 39 c8 -22 6 -31 -7
-44 -33 -34 -77 26 -46 63 18 22 42 13 53 -19z"/>
<path d="M2600 790 c-11 -11 -20 -33 -20 -49 0 -52 69 -81 106 -44 20 20 2 32
-21 13 -17 -14 -55 -4 -55 15 0 10 13 14 48 12 42 -1 47 1 44 18 -9 52 -66 71
-102 35z m68 -17 c2 -9 -7 -13 -27 -13 -31 0 -42 14 -18 23 19 8 40 3 45 -10z"/>
<path d="M2720 745 c0 -51 3 -65 15 -65 11 0 15 12 15 49 0 36 4 50 17 55 24
10 32 -4 34 -57 2 -33 6 -47 16 -47 11 0 13 14 11 56 -3 66 -23 88 -58 66 -12
-7 -20 -8 -20 -2 0 5 -7 10 -15 10 -12 0 -15 -14 -15 -65z"/>
<path d="M3124 786 c-31 -44 -1 -106 51 -106 56 0 85 70 45 110 -26 26 -77 23
-96 -4z m74 -8 c30 -30 -2 -93 -36 -71 -21 13 -27 50 -12 69 15 17 32 18 48 2z"/>
<path d="M3260 744 c0 -49 3 -64 14 -64 11 0 16 14 18 48 2 38 7 49 26 57 33
15 27 22 -18 22 l-40 0 0 -63z"/>
<path d="M3360 790 c-11 -11 -20 -31 -20 -45 0 -53 69 -85 105 -49 22 22 11
30 -20 14 -20 -11 -27 -11 -40 0 -27 22 -16 32 30 28 53 -4 63 10 34 46 -25
31 -61 34 -89 6z m68 -17 c2 -9 -7 -13 -27 -13 -31 0 -42 14 -18 23 19 8 40 3
45 -10z"/>
<path d="M3480 745 c0 -51 3 -65 15 -65 11 0 15 12 15 49 0 35 4 51 16 55 26
10 34 -3 34 -55 0 -38 4 -49 15 -49 13 0 15 11 13 56 -3 66 -23 88 -58 66 -12
-7 -20 -8 -20 -2 0 5 -7 10 -15 10 -12 0 -15 -14 -15 -65z"/>
<path d="M3642 794 c-54 -37 3 -141 58 -106 18 11 20 10 20 -8 0 -22 -51 -42
-58 -22 -2 7 -10 12 -19 12 -8 0 -13 -5 -11 -12 8 -22 34 -31 70 -24 42 8 48
22 48 114 0 48 -3 62 -15 62 -8 0 -15 -5 -15 -12 0 -9 -3 -9 -12 0 -16 16 -39
15 -66 -4z m68 -23 c15 -30 12 -49 -11 -61 -25 -14 -49 2 -49 34 0 43 41 61
60 27z"/>
<path d="M3789 789 l-24 -20 30 6 c47 11 58 11 62 -1 2 -7 -16 -16 -42 -23
-33 -8 -45 -16 -45 -30 0 -29 20 -39 76 -38 l51 1 -5 50 c-2 28 -9 57 -14 64
-16 19 -63 14 -89 -9z m71 -63 c0 -18 -39 -31 -52 -18 -15 15 0 32 28 32 14 0
24 -6 24 -14z"/>
<path d="M3929 794 c-18 -22 -1 -46 40 -57 18 -4 31 -13 28 -20 -5 -17 -45
-17 -51 0 -7 17 -26 8 -26 -12 0 -8 15 -17 34 -20 74 -14 106 47 37 70 -40 13
-53 35 -22 35 12 0 21 -4 21 -10 0 -5 7 -10 16 -10 11 0 14 5 10 16 -3 9 -6
18 -6 20 0 12 -69 2 -81 -12z"/>
<path d="M4059 794 c-18 -21 -1 -46 40 -58 17 -5 31 -13 31 -18 0 -18 -29 -19
-54 -3 -21 14 -26 15 -26 3 0 -36 58 -51 94 -25 27 20 16 49 -23 62 -19 6 -37
17 -39 23 -5 15 13 15 38 0 24 -15 37 -4 20 17 -16 20 -64 19 -81 -1z"/>
<path d="M4200 790 c-56 -56 21 -143 84 -95 26 20 12 32 -19 15 -20 -11 -27
-11 -40 0 -26 22 -17 31 30 27 53 -4 63 10 34 47 -25 31 -61 34 -89 6z m68
-17 c2 -9 -7 -13 -27 -13 -31 0 -42 14 -18 23 19 8 40 3 45 -10z"/>
<path d="M4320 744 c0 -49 3 -64 14 -64 11 0 16 14 18 48 2 38 7 49 26 57 33
15 27 22 -18 22 l-40 0 0 -63z"/>
<path d="M533 573 c-4 -10 -11 -22 -17 -26 -8 -6 -7 -10 2 -14 7 -3 12 -25 12
-59 0 -41 4 -54 15 -54 11 0 15 13 15 54 0 34 5 56 13 59 9 4 8 8 -3 16 -12 9
-12 11 3 17 9 3 14 10 11 15 -9 16 -44 10 -51 -8z"/>
<path d="M1120 505 c0 -69 3 -85 15 -85 12 0 15 14 15 62 l0 61 40 -61 c56
-88 70 -83 70 23 0 69 -3 85 -15 85 -12 0 -15 -14 -15 -62 l0 -61 -40 61 c-56
88 -70 83 -70 -23z"/>
<path d="M1800 505 c0 -69 3 -85 15 -85 10 0 15 11 15 35 0 35 0 35 45 35 50
0 72 23 59 63 -10 31 -22 37 -81 37 l-53 0 0 -85z m88 59 c17 -3 22 -10 20
-27 -2 -18 -11 -23 -40 -25 -36 -3 -38 -2 -38 26 0 30 12 35 58 26z"/>
<path d="M2200 580 c0 -5 7 -10 15 -10 8 0 15 5 15 10 0 6 -7 10 -15 10 -8 0
-15 -4 -15 -10z"/>
<path d="M2563 583 c-7 -3 -13 -11 -13 -18 0 -7 -6 -16 -12 -18 -10 -4 -10 -7
-1 -14 6 -5 13 -31 15 -58 3 -46 5 -50 31 -53 29 -4 37 12 12 22 -10 3 -15 19
-15 46 0 29 4 40 15 40 8 0 15 5 15 10 0 6 -6 10 -14 10 -8 0 -16 8 -18 18 -2
11 -9 17 -15 15z"/>
<path d="M600 484 c0 -49 3 -64 14 -64 11 0 16 14 18 47 2 38 8 50 26 59 28
14 19 21 -25 22 l-33 1 0 -65z"/>
<path d="M700 530 c-11 -11 -20 -31 -20 -45 0 -14 9 -34 20 -45 11 -11 31 -20
45 -20 14 0 34 9 45 20 11 11 20 31 20 45 0 14 -9 34 -20 45 -11 11 -31 20
-45 20 -14 0 -34 -9 -45 -20z m70 -14 c28 -34 -11 -94 -44 -67 -21 18 -20 57
2 70 23 14 28 13 42 -3z"/>
<path d="M830 485 c0 -51 3 -65 15 -65 11 0 15 12 15 49 0 35 4 51 16 55 26
10 34 -3 34 -55 0 -37 4 -49 15 -49 11 0 15 12 15 49 0 35 4 51 16 55 26 10
34 -3 34 -55 0 -37 4 -49 15 -49 19 0 21 100 3 118 -14 14 -54 16 -63 2 -4 -6
-13 -5 -25 3 -16 9 -24 9 -40 -1 -12 -7 -20 -8 -20 -2 0 5 -7 10 -15 10 -12 0
-15 -14 -15 -65z"/>
<path d="M1310 530 c-11 -11 -20 -31 -20 -45 0 -14 9 -34 20 -45 11 -11 31
-20 45 -20 14 0 34 9 45 20 11 11 20 31 20 45 0 14 -9 34 -20 45 -11 11 -31
20 -45 20 -14 0 -34 -9 -45 -20z m68 -12 c30 -30 -2 -93 -36 -71 -21 13 -27
50 -12 69 15 17 32 18 48 2z"/>
<path d="M1440 504 c0 -68 11 -82 65 -82 l45 1 0 64 c0 49 -3 63 -15 63 -10 0
-14 -12 -13 -46 0 -29 -4 -49 -13 -55 -25 -16 -34 -3 -37 49 -2 37 -7 52 -18
52 -10 0 -14 -12 -14 -46z"/>
<path d="M1580 485 c0 -51 3 -65 15 -65 11 0 15 12 15 49 0 35 4 51 16 55 26
10 34 -3 34 -55 0 -38 4 -49 15 -49 13 0 15 11 13 56 -3 66 -23 88 -58 66 -12
-7 -20 -8 -20 -2 0 5 -7 10 -15 10 -12 0 -15 -14 -15 -65z"/>
<path d="M1960 484 c0 -49 3 -64 14 -64 11 0 16 14 18 47 2 39 7 50 28 60 14
7 23 13 20 14 -3 1 -22 3 -42 4 l-38 4 0 -65z"/>
<path d="M2080 543 c-63 -23 -43 -123 25 -123 14 0 34 9 45 20 50 50 -2 127
-70 103z m48 -25 c32 -32 1 -89 -37 -68 -26 13 -28 55 -3 69 22 13 26 13 40
-1z"/>
<path d="M2200 471 c0 -54 -4 -81 -12 -84 -7 -2 -9 -8 -5 -13 4 -4 16 -3 25 2
24 16 31 174 7 174 -12 0 -15 -15 -15 -79z"/>
<path d="M2270 530 c-11 -11 -20 -31 -20 -45 0 -53 69 -85 105 -49 22 22 11
30 -20 14 -20 -11 -27 -11 -40 0 -25 21 -17 29 27 27 34 -2 43 2 46 16 5 25
-26 57 -55 57 -12 0 -32 -9 -43 -20z m68 -17 c2 -9 -7 -13 -27 -13 -31 0 -42
14 -18 23 19 8 40 3 45 -10z"/>
<path d="M2410 530 c-41 -41 -13 -110 46 -110 19 0 54 28 54 43 0 13 -23 7
-35 -9 -18 -26 -57 -1 -53 33 4 34 35 54 51 33 16 -20 37 -23 37 -5 0 35 -69
46 -100 15z"/>
</g>
</svg>
